Coordinates
version=1
nRows=13
nColumns=40
inDegrees=yes

Units are S.I. units (second, meters, Newtons, ...)
Angles are in degrees.

endheader
time	pelvis_tilt	pelvis_list	pelvis_rotation	pelvis_tx	pelvis_ty	pelvis_tz	hip_flexion_r	hip_adduction_r	hip_rotation_r	knee_angle_r	knee_angle_r_beta	ankle_angle_r	subtalar_angle_r	mtp_angle_r	hip_flexion_l	hip_adduction_l	hip_rotation_l	knee_angle_l	knee_angle_l_beta	ankle_angle_l	subtalar_angle_l	mtp_angle_l	lumbar_extension	lumbar_bending	lumbar_rotation	arm_flex_r	arm_add_r	arm_rot_r	elbow_flex_r	pro_sup_r	wrist_flex_r	wrist_dev_r	arm_flex_l	arm_add_l	arm_rot_l	elbow_flex_l	pro_sup_l	wrist_flex_l	wrist_dev_l
      5.57000000	     -2.97699175	     -4.79665339	      8.10381235	      1.08373695	      0.92402138	      0.48300693	      0.52796999	      2.55103759	    -16.55620844	     12.76195756	     12.76195756	     16.48305887	      1.01621661	     -4.36252029	     28.94046758	     -7.16827400	      0.20879062	     25.40348788	     25.40348788	      7.66642117	    -10.59292275	      7.41142274	     -9.30297100	      4.79641409	      3.22036624	     34.16148914	    -17.82228312	     -2.35364628	    108.16473107	     44.09250958	      0.00000000	      0.00000000	     -7.30582192	     -8.77500520	      3.93448137	     30.80526610	     45.12109738	      0.00000000	      0.00000000
      5.58371429	     -3.06040970	     -4.83571332	      8.06774559	      1.08410649	      0.92290826	      0.48071629	      0.17615657	      2.48281075	    -16.44296875	     12.75360584	     12.75360584	     16.80509329	      1.03252754	     -4.36737672	     28.55736116	     -7.11290675	      0.08380926	     25.84139134	     25.84139134	      7.59930062	    -10.81818406	      7.21075161	     -9.13071732	      4.69189412	      3.28911937	     33.67905422	    -17.59440199	     -2.20273464	    108.14944829	     44.08912223	      0.00000000	      0.00000000	     -7.04420895	     -8.99325045	      3.83658657	     31.01141716	     45.14079856	      0.00000000	      0.00000000
      5.59742857	     -3.13781177	     -4.85703801	      8.04085066	      1.08441682	      0.92191478	      0.47825463	     -0.12989547	      2.36948479	    -16.34227700	     12.84200807	     12.84200807	     17.10444589	      0.98381134	     -4.34299425	     28.18563067	     -7.01962960	      0.02118748	     26.19564302	     26.19564302	      7.57775454	    -10.97273146	      6.95409610	     -9.00462520	      4.58719421	      3.32711307	     33.07125722	    -17.41181268	     -2.05023229	    108.04463992	     44.08834439	      0.00000000	      0.00000000	     -6.71823461	     -9.22330849	      3.71191349	     31.27448000	     45.16535147	      0.00000000	      0.00000000
      5.61114286	     -3.23225494	     -4.87004504	      7.99956942	      1.08463409	      0.92108563	      0.47571840	     -0.19883505	      2.19318267	    -16.06487998	     13.38505469	     13.38505469	     17.95897580	      0.77578491	     -2.68645152	     27.71610513	     -6.90154207	     -0.03366248	     26.13096197	     26.13096197	      6.53504497	    -11.50829813	      4.16742294	     -8.90763713	      4.43017589	      3.52126033	     32.13102073	    -17.38510029	     -2.25606598	    108.02247455	     44.15567375	      0.00000000	      0.00000000	     -6.69459982	     -9.38962313	      2.34081575	     32.79739705	     45.38979835	      0.00000000	      0.00000000
      5.62485714	     -3.32606110	     -4.77472475	      7.96735107	      1.08466837	      0.92053229	      0.47292985	     -0.21126652	      1.83805899	    -15.98798498	     13.99305870	     13.99305870	     18.21057709	      0.53624005	     -2.68888898	     27.39407163	     -6.64997263	     -0.07252904	     26.32061704	     26.32061704	      6.65625726	    -11.67479892	      3.90602236	     -8.80822197	      4.18512564	      3.54713376	     31.38444248	    -17.34708283	     -1.96951084	    107.18185043	     44.18249426	      0.00000000	      0.00000000	     -6.07900977	     -9.56800872	      2.13791509	     32.85032890	     45.43233465	      0.00000000	      0.00000000
      5.63857143	     -3.27175083	     -4.73351589	      8.03638501	      1.08461670	      0.92046473	      0.46989052	     -0.43614799	      1.57459837	    -15.91911743	     14.45489749	     14.45489749	     18.27925679	      0.34143206	     -2.70560078	     27.03363892	     -6.42593402	      0.05340891	     26.58301906	     26.58301906	      6.85181685	    -11.74409045	      3.72923123	     -8.93306899	      4.10016890	      3.44506179	     30.51342365	    -17.05991117	     -1.68537421	    106.69461393	     44.18814871	      0.00000000	      0.00000000	     -5.43325070	     -9.82558851	      2.03589740	     33.02291713	     45.45725988	      0.00000000	      0.00000000
      5.65228571	     -3.42768820	     -4.54203753	      7.96283604	      1.08429600	      0.92041918	      0.46679165	     -0.00737383	      0.97634002	    -15.67143707	     15.74631747	     15.74631747	     18.41833587	     -0.25074675	     -2.69841284	     26.76003810	     -6.04038300	      0.00532263	     26.59271835	     26.59271835	      7.03130631	    -11.94167335	      3.49594418	     -8.83078971	      3.76222276	      3.58751911	     29.55332087	    -17.14854515	     -1.44622370	    105.09903389	     44.23799928	      0.00000000	      0.00000000	     -4.64266097	     -9.98558894	      1.77652221	     33.13404176	     45.50865851	      0.00000000	      0.00000000
      5.66600000	     -3.27458485	     -4.56389184	      8.05896989	      1.08407628	      0.92106469	      0.46347922	     -0.14675111	      0.72407078	    -15.65819142	     16.50175111	     16.50175111	     18.30054583	     -0.51765736	     -2.72704693	     26.29663806	     -5.86905628	      0.16616601	     26.71677637	     26.71677637	      7.33053217	    -12.00133077	      3.33578645	     -9.09973160	      3.81614342	      3.40389802	     28.45222789	    -16.81290518	     -1.10469696	    104.37325015	     44.24781828	      0.00000000	      0.00000000	     -3.81567365	    -10.19903785	      1.68035204	     33.36386519	     45.53509527	      0.00000000	      0.00000000
      5.67971429	     -3.46599554	     -4.32780271	      7.90591301	      1.08351022	      0.92150015	      0.46014396	      0.67578171	     -0.04162811	    -15.28087126	     18.41058690	     18.41058690	     18.31174736	     -1.36554481	     -2.75427867	     25.99256221	     -5.40841066	      0.11107447	     26.55813439	     26.55813439	      7.42785975	    -12.44135707	      3.15466645	     -8.88397443	      3.45885346	      3.22970871	     27.87667635	    -16.52161392	     -0.53220966	    100.87382757	     44.36766288	      0.00000000	      0.00000000	     -2.97306158	    -10.25428963	      1.04169165	     33.01097114	     45.64256506	      0.00000000	      0.00000000
      5.69342857	     -3.44364520	     -4.19431344	      7.80930140	      1.08308949	      0.92244113	      0.45671225	      1.20765050	     -0.67541259	    -15.09852530	     20.16138068	     20.16138068	     18.06000377	     -1.88301829	     -3.10086564	     25.44279156	     -5.12206006	     -0.03135270	     26.35219880	     26.35219880	      7.73856897	    -12.38855774	      3.03837942	     -8.99775655	      3.30624653	      3.42720279	     26.64960378	    -16.57912175	     -0.10608356	     99.16065593	     44.41190333	      0.00000000	      0.00000000	     -2.03714595	    -10.38385184	      0.78861502	     33.38644624	     45.69287721	      0.00000000	      0.00000000
      5.70714286	     -3.48051179	     -4.09384980	      7.65082164	      1.08253023	      0.92339292	      0.45330434	      2.00839558	     -1.32914747	    -14.81305961	     22.22798251	     22.22798251	     17.62256862	     -2.55776622	     -3.67369862	     24.94575077	     -4.86841996	     -0.22630710	     26.11552027	     26.11552027	      7.99907336	    -12.42150783	      2.96603265	     -9.05024738	      3.18190450	      3.57467809	     25.48659289	    -16.55201039	      0.29599481	     96.81321409	     44.47761497	      0.00000000	      0.00000000	     -1.08435103	    -10.48946966	      0.56801231	     33.73481415	     45.73842508	      0.00000000	      0.00000000
      5.72085714	     -3.47565304	     -3.98741932	      7.44434408	      1.08200279	      0.92445812	      0.44991201	      2.91457973	     -2.01585451	    -14.43850442	     24.53923787	     24.53923787	     17.03587772	     -3.32514112	     -4.42607545	     24.35625994	     -4.64067718	     -0.51528571	     25.82797344	     25.82797344	      8.25345014	    -12.39915919	      2.89542380	     -9.13061877	      3.09787211	      3.72601190	     24.30069790	    -16.42295959	      0.72444219	     94.29585256	     44.54613869	      0.00000000	      0.00000000	     -0.13670080	    -10.60702701	      0.40500990	     34.14406067	     45.77545015	      0.00000000	      0.00000000
      5.73457143	     -3.49063331	     -4.02928748	      7.24048666	      1.08138723	      0.92547118	      0.44663935	      3.91103783	     -2.48395973	    -13.86154513	     26.78696729	     26.78696729	     15.53068686	     -4.74340492	     -7.06793445	     23.80540531	     -4.54037869	     -0.63804913	     25.52384961	     25.52384961	      8.45765562	    -12.49791878	      2.68837356	     -9.03026949	      3.17082022	      2.94513892	     24.42042196	    -15.37324811	      1.77135240	     88.82986692	     44.71422848	      0.00000000	      0.00000000	      0.20362953	    -10.86470141	      0.00121753	     34.67520315	     45.83753478	      0.00000000	      0.00000000
